<svg width="140" height="24" viewBox="0 0 140 24" fill="none" xmlns="http://www.w3.org/2000/svg">
<path d="M0.3665 0.0879993H4.6865V9.912H4.9425L13.3265 0.0879993H18.5425V0.344L10.2545 9.816L19.4065 22.744V23H14.1265L7.3105 13.24L4.6865 16.28V23H0.3665V0.0879993ZM28.0598 6.808C29.2758 6.808 30.3851 7.02133 31.3878 7.448C32.4118 7.85333 33.2864 8.42933 34.0118 9.176C34.7584 9.90133 35.3344 10.776 35.7397 11.8C36.1664 12.824 36.3798 13.944 36.3798 15.16C36.3798 16.376 36.1664 17.496 35.7397 18.52C35.3344 19.544 34.7584 20.4293 34.0118 21.176C33.2864 21.9013 32.4118 22.4773 31.3878 22.904C30.3851 23.3093 29.2758 23.512 28.0598 23.512C26.8438 23.512 25.7238 23.3093 24.6998 22.904C23.6971 22.4773 22.8224 21.9013 22.0758 21.176C21.3504 20.4293 20.7744 19.544 20.3478 18.52C19.9424 17.496 19.7398 16.376 19.7398 15.16C19.7398 13.944 19.9424 12.824 20.3478 11.8C20.7744 10.776 21.3504 9.90133 22.0758 9.176C22.8224 8.42933 23.6971 7.85333 24.6998 7.448C25.7238 7.02133 26.8438 6.808 28.0598 6.808ZM28.0598 19.64C28.5931 19.64 29.1051 19.544 29.5958 19.352C30.1078 19.1387 30.5558 18.84 30.9398 18.456C31.3238 18.072 31.6224 17.6027 31.8358 17.048C32.0704 16.4933 32.1878 15.864 32.1878 15.16C32.1878 14.456 32.0704 13.8267 31.8358 13.272C31.6224 12.7173 31.3238 12.248 30.9398 11.864C30.5558 11.48 30.1078 11.192 29.5958 11C29.1051 10.7867 28.5931 10.68 28.0598 10.68C27.5051 10.68 26.9824 10.7867 26.4918 11C26.0011 11.192 25.5638 11.48 25.1798 11.864C24.7958 12.248 24.4864 12.7173 24.2518 13.272C24.0384 13.8267 23.9318 14.456 23.9318 15.16C23.9318 15.864 24.0384 16.4933 24.2518 17.048C24.4864 17.6027 24.7958 18.072 25.1798 18.456C25.5638 18.84 26.0011 19.1387 26.4918 19.352C26.9824 19.544 27.5051 19.64 28.0598 19.64ZM39.5853 0.0879993H48.5453C49.5266 0.0879993 50.4439 0.247999 51.2973 0.567999C52.1506 0.866666 52.8866 1.29333 53.5053 1.848C54.1453 2.38133 54.6466 3.01067 55.0093 3.736C55.3719 4.46133 55.5533 5.24 55.5533 6.072C55.5533 7.288 55.2546 8.312 54.6573 9.144C54.0813 9.95467 53.3559 10.5733 52.4813 11V11.256C53.6546 11.6827 54.5933 12.3547 55.2973 13.272C56.0226 14.168 56.3853 15.288 56.3853 16.632C56.3853 17.6133 56.1826 18.4987 55.7773 19.288C55.3933 20.056 54.8599 20.7173 54.1772 21.272C53.4946 21.8267 52.6946 22.2533 51.7773 22.552C50.8813 22.8507 49.9106 23 48.8653 23H39.5853V0.0879993ZM48.2253 9.432C49.2279 9.432 49.9959 9.16533 50.5293 8.632C51.0839 8.07733 51.3613 7.42667 51.3613 6.68C51.3613 5.93333 51.0946 5.29333 50.5613 4.76C50.0279 4.22667 49.2919 3.96 48.3533 3.96H43.9053V9.432H48.2253ZM48.7053 19.032C49.7933 19.032 50.6253 18.7653 51.2013 18.232C51.7773 17.6773 52.0653 16.9733 52.0653 16.12C52.0653 15.2667 51.7666 14.5627 51.1693 14.008C50.5933 13.432 49.7293 13.144 48.5773 13.144H43.9053V19.032H48.7053ZM66.6223 6.808C67.8383 6.808 68.9476 7.02133 69.9503 7.448C70.9743 7.85333 71.8489 8.42933 72.5743 9.176C73.3209 9.90133 73.8969 10.776 74.3022 11.8C74.7289 12.824 74.9423 13.944 74.9423 15.16C74.9423 16.376 74.7289 17.496 74.3022 18.52C73.8969 19.544 73.3209 20.4293 72.5743 21.176C71.8489 21.9013 70.9743 22.4773 69.9503 22.904C68.9476 23.3093 67.8383 23.512 66.6223 23.512C65.4063 23.512 64.2863 23.3093 63.2623 22.904C62.2596 22.4773 61.3849 21.9013 60.6383 21.176C59.9129 20.4293 59.3369 19.544 58.9103 18.52C58.5049 17.496 58.3023 16.376 58.3023 15.16C58.3023 13.944 58.5049 12.824 58.9103 11.8C59.3369 10.776 59.9129 9.90133 60.6383 9.176C61.3849 8.42933 62.2596 7.85333 63.2623 7.448C64.2863 7.02133 65.4063 6.808 66.6223 6.808ZM66.6223 19.64C67.1556 19.64 67.6676 19.544 68.1583 19.352C68.6703 19.1387 69.1183 18.84 69.5023 18.456C69.8863 18.072 70.1849 17.6027 70.3983 17.048C70.6329 16.4933 70.7503 15.864 70.7503 15.16C70.7503 14.456 70.6329 13.8267 70.3983 13.272C70.1849 12.7173 69.8863 12.248 69.5023 11.864C69.1183 11.48 68.6703 11.192 68.1583 11C67.6676 10.7867 67.1556 10.68 66.6223 10.68C66.0676 10.68 65.5449 10.7867 65.0543 11C64.5636 11.192 64.1263 11.48 63.7423 11.864C63.3583 12.248 63.0489 12.7173 62.8143 13.272C62.6009 13.8267 62.4943 14.456 62.4943 15.16C62.4943 15.864 62.6009 16.4933 62.8143 17.048C63.0489 17.6027 63.3583 18.072 63.7423 18.456C64.1263 18.84 64.5636 19.1387 65.0543 19.352C65.5449 19.544 66.0676 19.64 66.6223 19.64ZM83.0118 23V4.184H76.6118V0.0879993H93.7318V4.184H87.3318V23H83.0118ZM94.3858 7.32H98.3218V9.496H98.5778C98.7698 9.112 99.0258 8.76 99.3458 8.44C99.6658 8.12 100.018 7.84267 100.402 7.608C100.807 7.37333 101.234 7.192 101.682 7.064C102.151 6.936 102.61 6.872 103.058 6.872C103.612 6.872 104.082 6.92533 104.466 7.032C104.871 7.13867 105.212 7.27733 105.49 7.448L104.37 11.256C104.114 11.128 103.826 11.032 103.506 10.968C103.207 10.8827 102.834 10.84 102.386 10.84C101.81 10.84 101.287 10.9573 100.818 11.192C100.348 11.4053 99.9431 11.7147 99.6018 12.12C99.2818 12.5253 99.0258 13.0053 98.8338 13.56C98.6631 14.0933 98.5778 14.68 98.5778 15.32V23H94.3858V7.32ZM121.296 19.224C120.571 20.504 119.59 21.5387 118.352 22.328C117.136 23.1173 115.643 23.512 113.872 23.512C112.678 23.512 111.568 23.3093 110.544 22.904C109.542 22.4773 108.667 21.8907 107.92 21.144C107.174 20.3973 106.587 19.5227 106.16 18.52C105.755 17.496 105.552 16.376 105.552 15.16C105.552 14.0293 105.755 12.9627 106.16 11.96C106.566 10.936 107.131 10.0507 107.856 9.304C108.582 8.536 109.435 7.928 110.416 7.48C111.419 7.032 112.518 6.808 113.712 6.808C114.971 6.808 116.091 7.02133 117.072 7.448C118.054 7.85333 118.875 8.42933 119.536 9.176C120.198 9.90133 120.699 10.7653 121.04 11.768C121.382 12.7707 121.552 13.8587 121.552 15.032C121.552 15.1813 121.552 15.3093 121.552 15.416C121.531 15.544 121.52 15.6613 121.52 15.768C121.499 15.8747 121.488 15.992 121.488 16.12H109.68C109.766 16.76 109.936 17.3147 110.192 17.784C110.47 18.232 110.8 18.616 111.184 18.936C111.59 19.2347 112.027 19.4587 112.496 19.608C112.966 19.736 113.446 19.8 113.936 19.8C114.896 19.8 115.686 19.5867 116.304 19.16C116.944 18.712 117.446 18.1573 117.808 17.496L121.296 19.224ZM117.488 13.144C117.467 12.8667 117.371 12.5573 117.2 12.216C117.051 11.8747 116.816 11.5547 116.496 11.256C116.198 10.9573 115.814 10.712 115.344 10.52C114.896 10.328 114.352 10.232 113.712 10.232C112.816 10.232 112.027 10.488 111.344 11C110.662 11.512 110.182 12.2267 109.904 13.144H117.488ZM129.062 4.184V9.496H138.246V13.592H129.062V18.904H139.27V23H124.742V0.0879993H139.27V4.184H129.062Z" fill="#0202C6"/>
</svg>
